<svg id="Layer_1" data-name="Layer 1" xmlns="http://www.w3.org/2000/svg" viewBox="0 0 456.62 485.94"><title>logo</title><path d="M239.65,7.59H183v147a29.41,29.41,0,0,1-9.08,21.85,30.34,30.34,0,0,1-22,8.89,30.36,30.36,0,0,1-30.74-30.74v-40h-57V155a83.42,83.42,0,0,0,7,34.08A90.61,90.61,0,0,0,90,216.85a87.86,87.86,0,0,0,27.78,18.7,88.16,88.16,0,0,0,68.15,0,88,88,0,0,0,27.77-18.7,90.71,90.71,0,0,0,18.88-27.77,83.43,83.43,0,0,0,7-34.08V7.59Z" transform="translate(-36.35 -7.03)"/><path d="M375,243a113.91,113.91,0,0,0,46-9.3A119.23,119.23,0,0,0,483.67,171a114.07,114.07,0,0,0,9.3-46,114.49,114.49,0,0,0-9.3-45.78A118.72,118.72,0,0,0,421,16.33a118.19,118.19,0,0,0-91.92,0,118.74,118.74,0,0,0-62.71,62.89A114.38,114.38,0,0,0,257,125a114,114,0,0,0,9.3,46A119.25,119.25,0,0,0,329,233.67,114,114,0,0,0,375,243Zm0-178.63a58.16,58.16,0,0,1,23.64,4.84,61.88,61.88,0,0,1,32.19,32.19,60.16,60.16,0,0,1,0,47.27,65,65,0,0,1-13,19.35,61,61,0,0,1-19.16,13.21,60.16,60.16,0,0,1-47.27,0A60.87,60.87,0,0,1,332.2,168a64.63,64.63,0,0,1-13-19.35,60.08,60.08,0,0,1,0-47.27,61.83,61.83,0,0,1,32.18-32.19A58.1,58.1,0,0,1,375,64.34Z" transform="translate(-36.35 -7.03)"/><path d="M239.65,460.33,154,492.6a114.33,114.33,0,0,0,44.34-8.71,118.62,118.62,0,0,0,37.65-25l-40.06-40.07A59.28,59.28,0,0,1,154,435.47a57.69,57.69,0,0,1-23.56-4.82,61.64,61.64,0,0,1-32.08-32.09,59.88,59.88,0,0,1,0-47.11,61.64,61.64,0,0,1,32.08-32.09A57.8,57.8,0,0,1,154,314.53a59.28,59.28,0,0,1,41.93,16.69l40.06-40.07a113.5,113.5,0,0,0-37.65-25.23A116.53,116.53,0,0,0,154,257.4a113.83,113.83,0,0,0-45.82,9.27,118.92,118.92,0,0,0-62.51,62.52,117.82,117.82,0,0,0,0,91.63,118.92,118.92,0,0,0,62.51,62.52A113.71,113.71,0,0,0,154,492.6Z" transform="translate(-36.35 -7.03)"/><path d="M375,493a113.91,113.91,0,0,0,46-9.3A119.23,119.23,0,0,0,483.67,421a117.74,117.74,0,0,0,0-91.74A118.72,118.72,0,0,0,421,266.33a118.19,118.19,0,0,0-91.92,0,118.74,118.74,0,0,0-62.71,62.89,117.74,117.74,0,0,0,0,91.74A119.25,119.25,0,0,0,329,483.67,114,114,0,0,0,375,493Zm0-178.63a58.16,58.16,0,0,1,23.64,4.84,61.88,61.88,0,0,1,32.19,32.19,60.16,60.16,0,0,1,0,47.27,65,65,0,0,1-13,19.35,61,61,0,0,1-19.16,13.21,60.16,60.16,0,0,1-47.27,0A60.87,60.87,0,0,1,332.2,418a64.63,64.63,0,0,1-13-19.35,60.08,60.08,0,0,1,0-47.27,61.83,61.83,0,0,1,32.18-32.19A58.1,58.1,0,0,1,375,314.34Z" transform="translate(-36.35 -7.03)"/></svg>