<svg id="Layer_1" data-name="Layer 1" xmlns="http://www.w3.org/2000/svg" viewBox="0 0 1188 1188"><defs><style>.cls-1{fill:#231f20;}</style></defs><title>index</title><path class="cls-1" d="M503.92,379.67c0,110.44-65,173.1-170.74,173.1-65.8,0-120.62-29-161.35-79.11l43.86-70.49c36,39.16,79.1,60.31,116.7,60.31,49.34,0,78.32-30.55,78.32-86.94V83.61H221.17V.59H503.92Z"/><path class="cls-1" d="M1180.38,275.89c0,156.31-126.62,277.45-290,277.45s-290-121.14-290-277.45C600.46,118.8,727.07,0,890.42,0S1180.38,119.58,1180.38,275.89Zm-486.13,0c0,108.64,89.88,194.61,197,194.61a194.13,194.13,0,0,0,194.61-194.61c0-108.64-87.54-193-194.61-193C783.35,82.85,694.25,167.26,694.25,275.89Z"/><path class="cls-1" d="M1180.38,910.54c0,156.31-126.62,277.45-290,277.45s-290-121.14-290-277.45c0-157.09,126.62-275.89,290-275.89S1180.38,754.23,1180.38,910.54Zm-486.13,0c0,108.64,89.88,194.61,197,194.61a194.13,194.13,0,0,0,194.61-194.61c0-108.64-87.54-193-194.61-193C783.35,717.5,694.25,801.91,694.25,910.54Z"/><path class="cls-1" d="M503.13,719.06l-53.92,67.21c-39.86-43-96.92-69.56-152.41-69.56-109.41,0-195.39,84.41-195.39,192.27s86,193,195.39,193c54.71,0,111-25,152.41-64.87l54.71,61C448.43,1152.83,369.48,1188,292.11,1188,131.89,1188,7.62,1066.86,7.62,909.76c0-155.53,125.83-275.11,287.62-275.11C372.61,634.65,450,666.7,503.13,719.06Z"/></svg>